<?xml version="1.0" encoding="UTF-8"?>
<svg id="Layer_2" data-name="Layer 2" xmlns="http://www.w3.org/2000/svg" xmlns:xlink="http://www.w3.org/1999/xlink" viewBox="0 0 860.04 133.7">
  <defs>
    <style>
      .cls-1 {
        fill: url(#linear-gradient-2);
      }

      .cls-1, .cls-2, .cls-3, .cls-4, .cls-5, .cls-6 {
        fill-rule: evenodd;
      }

      .cls-2 {
        fill: url(#linear-gradient-3);
      }

      .cls-3 {
        fill: url(#linear-gradient-4);
      }

      .cls-4 {
        fill: #fff;
      }

      .cls-5 {
        fill: url(#linear-gradient);
      }

      .cls-6 {
        fill: #97db4d;
      }
    </style>
    <linearGradient id="linear-gradient" x1="469.86" y1="133.7" x2="469.86" y2="37.34" gradientUnits="userSpaceOnUse">
      <stop offset="0" stop-color="#58a400"/>
      <stop offset="1" stop-color="#8cc947"/>
    </linearGradient>
    <linearGradient id="linear-gradient-2" x1="395.15" x2="395.15" y2="5.23" xlink:href="#linear-gradient"/>
    <linearGradient id="linear-gradient-3" x1="310.48" x2="310.48" xlink:href="#linear-gradient"/>
    <linearGradient id="linear-gradient-4" x1="184.29" x2="184.29" y2="5.23" xlink:href="#linear-gradient"/>
  </defs>
  <g id="Layer_1-2" data-name="Layer 1">
    <g>
      <path class="cls-4" d="M670.76,79.3c0-39.14,34.43-49.53,52.52-49.53,24.77,0,49.54,16.62,50.42,47.28,0,7.28-.53,11.95-.53,11.95h-76.24c3.16,15.59,21.08,17.32,26.35,17.32,14.58,0,21.78-7.79,24.77-11.08l20.38,11.6c-3.86,5.2-16.86,22.17-45.14,22.17-18.8,0-52.52-10.57-52.52-49.7M697.64,70.64h48.31c-1.05-8.66-9.66-18.19-22.84-18.19-15.11,0-24.42,8.49-25.47,18.19"/>
      <path class="cls-4" d="M610.94,132.26c45.04-2.2,46.54-38.66,46.54-38.66-.6-27.42-26.65-36.65-26.65-36.65,11.66-6.57,11.06-22.78,11.06-22.78,1.2-34.17-31.69-34.17-31.69-34.17h-65.62v132.31h63.56c.96,0,1.88-.02,2.8-.05ZM568.79,106.68V21.69h33.63c15.25,1.97,14.57,15.12,14.57,15.12-.82,17.96-14.57,16.87-14.57,16.87h-19.73l-10.99,23.22h45.29c16.59,1.75,14.13,15.33,14.13,15.33.45,12.93-11.66,14.46-11.66,14.46h-50.67Z"/>
      <path class="cls-4" d="M833.58,101.63s-15.19,1.41-15.19-21.71v-27.22h27.11v-27.06h-27.11V3.31h-28.09v76.61s-1.31,49.08,44.25,49.08h25.48v-27.37h-26.45Z"/>
      <g>
        <path class="cls-6" d="M418.4,80.29c0,26.52,17.77,48.17,48.07,48.17,3.97,0,7.75-.53,11.23-1.39v-21.55c-2.29.51-4.76.77-7.4.77-16.02,0-26.3-11.41-26.3-26.02s9.75-26.19,26.3-26.19c15.42,0,25.3,9.89,26.22,24.01.05.72.08,1.44.08,2.18,0,.8-.03,1.58-.08,2.35v43.82h24.81V34.13h-25.78v9.57c-4.88-6.21-15.15-11.58-29.09-11.58-30.31,0-48.07,21.65-48.07,48.18"/>
        <polygon class="cls-6" points="408.43 99.75 408.43 0 381.87 0 381.87 128.47 408.43 128.47 408.43 99.75"/>
        <path class="cls-6" d="M259.01,80.29c0,26.52,17.77,48.17,48.07,48.17,3.97,0,7.75-.53,11.23-1.39v-21.55c-2.29.51-4.76.77-7.4.77-16.02,0-26.3-11.41-26.3-26.02s9.75-26.19,26.3-26.19c15.42,0,25.31,9.89,26.22,24.01.05.72.08,1.44.08,2.18,0,.8-.03,1.58-.08,2.35v43.82h24.81V34.13h-25.78v9.57c-4.88-6.21-15.15-11.58-29.09-11.58-30.31,0-48.07,21.65-48.07,48.18"/>
        <path class="cls-6" d="M197.75,55.3l-10.71,22.22,26.6-.22v26.33c-2.35,1.12-7.83,1.87-14.67,1.87-24.46,0-41.48-15.31-41.48-41.27,0-27.26,18.78-40.71,43.63-40.71,14.48,0,23.48,2.43,32.69,5.77l6.26-22.78c-8.43-3.34-21.53-6.51-38.56-6.51-43.24,0-75.13,23.9-75.33,65.73-.2,18.48,6.46,34.92,18.59,45.75,12.13,11.2,29.54,16.99,53.61,16.99,17.41,0,34.83-4.11,44.02-7.1V55.08l-44.65.22Z"/>
      </g>
      <g>
        <path class="cls-5" d="M418.4,85.52c0,26.52,17.77,48.17,48.07,48.17,3.97,0,7.75-.53,11.23-1.39v-21.55c-2.29.51-4.76.77-7.4.77-16.02,0-26.3-11.41-26.3-26.02s9.75-26.19,26.3-26.19c15.42,0,25.3,9.89,26.22,24.01.05.72.08,1.44.08,2.18,0,.8-.03,1.58-.08,2.35v43.82h24.81V39.36h-25.78v9.57c-4.88-6.21-15.15-11.58-29.09-11.58-30.31,0-48.07,21.65-48.07,48.18"/>
        <polygon class="cls-1" points="408.43 104.97 408.43 5.23 381.87 5.23 381.87 133.7 408.43 133.7 408.43 104.97"/>
        <path class="cls-2" d="M259.01,85.52c0,26.52,17.77,48.17,48.07,48.17,3.97,0,7.75-.53,11.23-1.39v-21.55c-2.29.51-4.76.77-7.4.77-16.02,0-26.3-11.41-26.3-26.02s9.75-26.19,26.3-26.19c15.42,0,25.31,9.89,26.22,24.01.05.72.08,1.44.08,2.18,0,.8-.03,1.58-.08,2.35v43.82h24.81V39.36h-25.78v9.57c-4.88-6.21-15.15-11.58-29.09-11.58-30.31,0-48.07,21.65-48.07,48.18"/>
        <path class="cls-3" d="M194.63,60.31l-10.71,22.22h29.73v26.33c-2.35,1.12-7.83,1.87-14.67,1.87-24.46,0-41.48-15.31-41.48-41.27,0-27.26,18.78-40.71,43.63-40.71,14.48,0,23.48,2.43,30.72,5.42l6.26-22.78c-6.46-2.99-19.56-6.16-36.59-6.16-43.24,0-75.13,23.9-75.33,65.73-.2,18.48,6.46,34.92,18.59,45.75,12.13,11.2,29.54,16.99,53.61,16.99,17.41,0,34.83-4.11,44.02-7.1V60.31h-47.78Z"/>
      </g>
      <path class="cls-4" d="M93.82,52.73c-18.64-14.69-28.39-21.98-39.19-42.81-10.71,20.87-20.42,28.21-39.01,42.98-29.03,23.09-12.83,53.1,9.9,54.5,14.17.87,22.73-9.18,26.67-15.48-1.23,8.49-3.75,23.67-6.92,30.47l19.22-.04c-3.21-6.79-5.79-21.95-7.06-30.45,3.97,6.29,12.58,16.3,26.74,15.37,22.73-1.5,38.79-31.58,9.65-54.54"/>
    </g>
  </g>
</svg>